<svg width="14" height="14" fill="none" xmlns="http://www.w3.org/2000/svg"><path d="M7 2.71a2.71 2.71 0 1 0 .001 5.42A2.71 2.71 0 0 0 7 2.71Zm0 4.064a1.355 1.355 0 1 1 0-2.71 1.355 1.355 0 0 1 0 2.71ZM7 0C3.133 0 0 3.133 0 7s3.133 7 7 7 7-3.133 7-7-3.133-7-7-7Zm0 12.645a5.613 5.613 0 0 1-3.672-1.366c.42-.65 1.14-1.09 1.964-1.115A5.74 5.74 0 0 0 7 10.435c.562 0 1.12-.087 1.708-.27a2.439 2.439 0 0 1 1.964 1.114A5.613 5.613 0 0 1 7 12.645Zm4.592-2.374a3.744 3.744 0 0 0-2.966-1.465c-.288 0-.734.271-1.626.271-.89 0-1.338-.27-1.626-.27-1.21 0-2.275.578-2.966 1.464A5.605 5.605 0 0 1 1.355 7 5.65 5.65 0 0 1 7 1.355 5.65 5.65 0 0 1 12.645 7c0 1.22-.392 2.348-1.053 3.271Z" fill="#4A4A4A"/></svg>
